<?xml version="1.0" encoding="utf-8"?>
<!-- Generator: Adobe Illustrator 22.1.0, SVG Export Plug-In . SVG Version: 6.00 Build 0)  -->
<svg version="1.1" id="레이어_1" xmlns="http://www.w3.org/2000/svg" xmlns:xlink="http://www.w3.org/1999/xlink" x="0px"
	 y="0px" width="6.688px" height="9.07px" viewBox="0 0 6.688 9.07" enable-background="new 0 0 6.688 9.07" xml:space="preserve">
<g>
	<path fill="#5464AD" d="M3.698,2.459C3.652,2.413,3.596,2.376,3.535,2.35C3.474,2.325,3.409,2.312,3.344,2.312
		S3.214,2.325,3.153,2.35C3.091,2.375,3.036,2.412,2.99,2.459L0.147,5.302c-0.195,0.195-0.195,0.512,0,0.707
		c0.195,0.195,0.512,0.195,0.707,0l1.99-1.99V8.57c0,0.276,0.224,0.5,0.5,0.5s0.5-0.224,0.5-0.5V4.019l1.99,1.99
		c0.195,0.195,0.512,0.195,0.707,0c0.195-0.195,0.195-0.512,0-0.707L3.698,2.459z"/>
	<path fill="#5464AD" d="M0.5,1h5.688c0.276,0,0.5-0.224,0.5-0.5S6.464,0,6.188,0H0.5C0.224,0,0,0.224,0,0.5S0.223,1,0.5,1z"/>
</g>
</svg>
